{
	"patcher" : 	{
		"fileversion" : 1,
		"rect" : [ 219.0, 113.0, 972.0, 561.0 ],
		"bglocked" : 0,
		"defrect" : [ 219.0, 113.0, 972.0, 561.0 ],
		"openrect" : [ 0.0, 0.0, 0.0, 0.0 ],
		"openinpresentation" : 0,
		"default_fontsize" : 10.0,
		"default_fontface" : 0,
		"default_fontname" : "Verdana",
		"gridonopen" : 0,
		"gridsize" : [ 5.0, 5.0 ],
		"gridsnaponopen" : 0,
		"toolbarvisible" : 1,
		"boxanimatetime" : 200,
		"imprint" : 0,
		"enablehscroll" : 1,
		"enablevscroll" : 1,
		"devicewidth" : 0.0,
		"boxes" : [ 			{
				"box" : 				{
					"maxclass" : "live.slider",
					"varname" : "live.slider[7]",
					"id" : "obj-53",
					"parameter_enable" : 1,
					"outlettype" : [ "", "float" ],
					"numinlets" : 1,
					"patching_rect" : [ 550.0, 270.0, 39.0, 95.0 ],
					"numoutlets" : 2,
					"saved_attribute_attributes" : 					{
						"valueof" : 						{
							"parameter_unitstyle" : 1,
							"parameter_mmax" : 1.0,
							"parameter_mmin" : 0.0,
							"parameter_type" : 0,
							"parameter_initial_enable" : 0,
							"parameter_shortname" : "live.slider",
							"parameter_invisible" : 2,
							"parameter_modmax" : 127.0,
							"parameter_annotation_name" : "",
							"parameter_longname" : "live.slider[7]",
							"parameter_modmin" : 0.0,
							"parameter_linknames" : 0,
							"parameter_modmode" : 0,
							"parameter_info" : "",
							"parameter_order" : 0,
							"parameter_units" : "",
							"parameter_speedlim" : 0,
							"parameter_steps" : 0,
							"parameter_exponent" : 1.0
						}

					}

				}

			}
, 			{
				"box" : 				{
					"maxclass" : "live.slider",
					"varname" : "live.slider[6]",
					"id" : "obj-52",
					"parameter_enable" : 1,
					"outlettype" : [ "", "float" ],
					"numinlets" : 1,
					"patching_rect" : [ 485.0, 270.0, 39.0, 95.0 ],
					"numoutlets" : 2,
					"saved_attribute_attributes" : 					{
						"valueof" : 						{
							"parameter_unitstyle" : 1,
							"parameter_mmax" : 1.0,
							"parameter_mmin" : 0.0,
							"parameter_type" : 0,
							"parameter_initial_enable" : 0,
							"parameter_shortname" : "live.slider",
							"parameter_invisible" : 2,
							"parameter_modmax" : 127.0,
							"parameter_annotation_name" : "",
							"parameter_longname" : "live.slider[6]",
							"parameter_modmin" : 0.0,
							"parameter_linknames" : 0,
							"parameter_modmode" : 0,
							"parameter_info" : "",
							"parameter_order" : 0,
							"parameter_units" : "",
							"parameter_speedlim" : 0,
							"parameter_steps" : 0,
							"parameter_exponent" : 1.0
						}

					}

				}

			}
, 			{
				"box" : 				{
					"maxclass" : "live.slider",
					"varname" : "live.slider[5]",
					"id" : "obj-51",
					"parameter_enable" : 1,
					"outlettype" : [ "", "float" ],
					"numinlets" : 1,
					"patching_rect" : [ 420.0, 270.0, 39.0, 95.0 ],
					"numoutlets" : 2,
					"saved_attribute_attributes" : 					{
						"valueof" : 						{
							"parameter_unitstyle" : 1,
							"parameter_mmax" : 1.0,
							"parameter_mmin" : 0.0,
							"parameter_type" : 0,
							"parameter_initial_enable" : 0,
							"parameter_shortname" : "live.slider",
							"parameter_invisible" : 2,
							"parameter_modmax" : 127.0,
							"parameter_annotation_name" : "",
							"parameter_longname" : "live.slider[5]",
							"parameter_modmin" : 0.0,
							"parameter_linknames" : 0,
							"parameter_modmode" : 0,
							"parameter_info" : "",
							"parameter_order" : 0,
							"parameter_units" : "",
							"parameter_speedlim" : 0,
							"parameter_steps" : 0,
							"parameter_exponent" : 1.0
						}

					}

				}

			}
, 			{
				"box" : 				{
					"maxclass" : "live.slider",
					"varname" : "live.slider[4]",
					"id" : "obj-50",
					"parameter_enable" : 1,
					"outlettype" : [ "", "float" ],
					"numinlets" : 1,
					"patching_rect" : [ 355.0, 270.0, 39.0, 95.0 ],
					"numoutlets" : 2,
					"saved_attribute_attributes" : 					{
						"valueof" : 						{
							"parameter_unitstyle" : 1,
							"parameter_mmax" : 1.0,
							"parameter_mmin" : 0.0,
							"parameter_type" : 0,
							"parameter_initial_enable" : 0,
							"parameter_shortname" : "live.slider",
							"parameter_invisible" : 2,
							"parameter_modmax" : 127.0,
							"parameter_annotation_name" : "",
							"parameter_longname" : "live.slider[4]",
							"parameter_modmin" : 0.0,
							"parameter_linknames" : 0,
							"parameter_modmode" : 0,
							"parameter_info" : "",
							"parameter_order" : 0,
							"parameter_units" : "",
							"parameter_speedlim" : 0,
							"parameter_steps" : 0,
							"parameter_exponent" : 1.0
						}

					}

				}

			}
, 			{
				"box" : 				{
					"maxclass" : "live.slider",
					"varname" : "live.slider[3]",
					"id" : "obj-49",
					"parameter_enable" : 1,
					"outlettype" : [ "", "float" ],
					"numinlets" : 1,
					"patching_rect" : [ 290.0, 270.0, 39.0, 95.0 ],
					"numoutlets" : 2,
					"saved_attribute_attributes" : 					{
						"valueof" : 						{
							"parameter_unitstyle" : 1,
							"parameter_mmax" : 1.0,
							"parameter_mmin" : 0.0,
							"parameter_type" : 0,
							"parameter_initial_enable" : 0,
							"parameter_shortname" : "live.slider",
							"parameter_invisible" : 2,
							"parameter_modmax" : 127.0,
							"parameter_annotation_name" : "",
							"parameter_longname" : "live.slider[3]",
							"parameter_modmin" : 0.0,
							"parameter_linknames" : 0,
							"parameter_modmode" : 0,
							"parameter_info" : "",
							"parameter_order" : 0,
							"parameter_units" : "",
							"parameter_speedlim" : 0,
							"parameter_steps" : 0,
							"parameter_exponent" : 1.0
						}

					}

				}

			}
, 			{
				"box" : 				{
					"maxclass" : "live.slider",
					"varname" : "live.slider[2]",
					"id" : "obj-48",
					"parameter_enable" : 1,
					"outlettype" : [ "", "float" ],
					"numinlets" : 1,
					"patching_rect" : [ 225.0, 270.0, 39.0, 95.0 ],
					"numoutlets" : 2,
					"saved_attribute_attributes" : 					{
						"valueof" : 						{
							"parameter_unitstyle" : 1,
							"parameter_mmax" : 1.0,
							"parameter_mmin" : 0.0,
							"parameter_type" : 0,
							"parameter_initial_enable" : 0,
							"parameter_shortname" : "live.slider",
							"parameter_invisible" : 2,
							"parameter_modmax" : 127.0,
							"parameter_annotation_name" : "",
							"parameter_longname" : "live.slider[2]",
							"parameter_modmin" : 0.0,
							"parameter_linknames" : 0,
							"parameter_modmode" : 0,
							"parameter_info" : "",
							"parameter_order" : 0,
							"parameter_units" : "",
							"parameter_speedlim" : 0,
							"parameter_steps" : 0,
							"parameter_exponent" : 1.0
						}

					}

				}

			}
, 			{
				"box" : 				{
					"maxclass" : "live.slider",
					"varname" : "live.slider[1]",
					"id" : "obj-47",
					"parameter_enable" : 1,
					"outlettype" : [ "", "float" ],
					"presentation_rect" : [ 160.0, 272.0, 0.0, 0.0 ],
					"numinlets" : 1,
					"patching_rect" : [ 160.0, 270.0, 39.0, 95.0 ],
					"numoutlets" : 2,
					"saved_attribute_attributes" : 					{
						"valueof" : 						{
							"parameter_unitstyle" : 1,
							"parameter_mmax" : 1.0,
							"parameter_mmin" : 0.0,
							"parameter_type" : 0,
							"parameter_initial_enable" : 0,
							"parameter_shortname" : "live.slider",
							"parameter_invisible" : 2,
							"parameter_modmax" : 127.0,
							"parameter_annotation_name" : "",
							"parameter_longname" : "live.slider[1]",
							"parameter_modmin" : 0.0,
							"parameter_linknames" : 0,
							"parameter_modmode" : 0,
							"parameter_info" : "",
							"parameter_order" : 0,
							"parameter_units" : "",
							"parameter_speedlim" : 0,
							"parameter_steps" : 0,
							"parameter_exponent" : 1.0
						}

					}

				}

			}
, 			{
				"box" : 				{
					"maxclass" : "live.slider",
					"varname" : "live.slider",
					"id" : "obj-43",
					"parameter_enable" : 1,
					"outlettype" : [ "", "float" ],
					"numinlets" : 1,
					"patching_rect" : [ 95.0, 270.0, 39.0, 95.0 ],
					"numoutlets" : 2,
					"saved_attribute_attributes" : 					{
						"valueof" : 						{
							"parameter_unitstyle" : 1,
							"parameter_mmax" : 1.0,
							"parameter_mmin" : 0.0,
							"parameter_type" : 0,
							"parameter_initial_enable" : 0,
							"parameter_shortname" : "live.slider",
							"parameter_invisible" : 2,
							"parameter_modmax" : 127.0,
							"parameter_annotation_name" : "",
							"parameter_longname" : "live.slider",
							"parameter_modmin" : 0.0,
							"parameter_linknames" : 0,
							"parameter_modmode" : 0,
							"parameter_info" : "",
							"parameter_order" : 0,
							"parameter_units" : "",
							"parameter_speedlim" : 0,
							"parameter_steps" : 0,
							"parameter_exponent" : 1.0
						}

					}

				}

			}
, 			{
				"box" : 				{
					"maxclass" : "newobj",
					"text" : "dspstate~",
					"id" : "obj-26",
					"fontname" : "Verdana",
					"outlettype" : [ "int", "float", "int", "int" ],
					"fontsize" : 10.0,
					"numinlets" : 1,
					"patching_rect" : [ 30.0, 135.0, 61.0, 19.0 ],
					"numoutlets" : 4
				}

			}
, 			{
				"box" : 				{
					"maxclass" : "toggle",
					"id" : "obj-25",
					"outlettype" : [ "int" ],
					"numinlets" : 1,
					"patching_rect" : [ 30.0, 160.0, 20.0, 20.0 ],
					"numoutlets" : 1
				}

			}
, 			{
				"box" : 				{
					"maxclass" : "newobj",
					"text" : "metro 50",
					"id" : "obj-20",
					"fontname" : "Verdana",
					"outlettype" : [ "bang" ],
					"fontsize" : 10.0,
					"numinlets" : 2,
					"patching_rect" : [ 30.0, 185.0, 57.0, 19.0 ],
					"numoutlets" : 1
				}

			}
, 			{
				"box" : 				{
					"maxclass" : "newobj",
					"text" : "snapshot~",
					"id" : "obj-16",
					"fontname" : "Verdana",
					"outlettype" : [ "float" ],
					"fontsize" : 10.0,
					"numinlets" : 2,
					"patching_rect" : [ 550.0, 245.0, 64.0, 19.0 ],
					"numoutlets" : 1
				}

			}
, 			{
				"box" : 				{
					"maxclass" : "newobj",
					"text" : "snapshot~",
					"id" : "obj-9",
					"fontname" : "Verdana",
					"outlettype" : [ "float" ],
					"fontsize" : 10.0,
					"numinlets" : 2,
					"patching_rect" : [ 485.0, 245.0, 64.0, 19.0 ],
					"numoutlets" : 1
				}

			}
, 			{
				"box" : 				{
					"maxclass" : "newobj",
					"text" : "snapshot~",
					"id" : "obj-8",
					"fontname" : "Verdana",
					"outlettype" : [ "float" ],
					"fontsize" : 10.0,
					"numinlets" : 2,
					"patching_rect" : [ 420.0, 245.0, 64.0, 19.0 ],
					"numoutlets" : 1
				}

			}
, 			{
				"box" : 				{
					"maxclass" : "newobj",
					"text" : "snapshot~",
					"id" : "obj-7",
					"fontname" : "Verdana",
					"outlettype" : [ "float" ],
					"fontsize" : 10.0,
					"numinlets" : 2,
					"patching_rect" : [ 355.0, 245.0, 64.0, 19.0 ],
					"numoutlets" : 1
				}

			}
, 			{
				"box" : 				{
					"maxclass" : "newobj",
					"text" : "snapshot~",
					"id" : "obj-6",
					"fontname" : "Verdana",
					"outlettype" : [ "float" ],
					"fontsize" : 10.0,
					"numinlets" : 2,
					"patching_rect" : [ 290.0, 245.0, 64.0, 19.0 ],
					"numoutlets" : 1
				}

			}
, 			{
				"box" : 				{
					"maxclass" : "newobj",
					"text" : "snapshot~",
					"id" : "obj-5",
					"fontname" : "Verdana",
					"outlettype" : [ "float" ],
					"fontsize" : 10.0,
					"numinlets" : 2,
					"patching_rect" : [ 225.0, 245.0, 64.0, 19.0 ],
					"numoutlets" : 1
				}

			}
, 			{
				"box" : 				{
					"maxclass" : "newobj",
					"text" : "snapshot~",
					"id" : "obj-3",
					"fontname" : "Verdana",
					"outlettype" : [ "float" ],
					"fontsize" : 10.0,
					"presentation_rect" : [ 161.0, 245.0, 0.0, 0.0 ],
					"numinlets" : 2,
					"patching_rect" : [ 160.0, 245.0, 64.0, 19.0 ],
					"numoutlets" : 1
				}

			}
, 			{
				"box" : 				{
					"maxclass" : "newobj",
					"text" : "snapshot~",
					"id" : "obj-2",
					"fontname" : "Verdana",
					"outlettype" : [ "float" ],
					"fontsize" : 10.0,
					"numinlets" : 2,
					"patching_rect" : [ 95.0, 245.0, 64.0, 19.0 ],
					"numoutlets" : 1
				}

			}
, 			{
				"box" : 				{
					"maxclass" : "newobj",
					"varname" : "u519000015",
					"text" : "pattr",
					"id" : "obj-36",
					"fontname" : "Verdana",
					"outlettype" : [ "", "", "" ],
					"fontsize" : 10.0,
					"numinlets" : 1,
					"patching_rect" : [ 80.0, 35.0, 48.0, 19.0 ],
					"numoutlets" : 3,
					"restore" : [ 2 ],
					"saved_object_attributes" : 					{
						"parameter_enable" : 0
					}

				}

			}
, 			{
				"box" : 				{
					"maxclass" : "comment",
					"text" : "Teabox",
					"id" : "obj-35",
					"fontname" : "Arial",
					"frgb" : [ 0.101961, 0.121569, 0.172549, 1.0 ],
					"fontface" : 3,
					"fontsize" : 12.0,
					"numinlets" : 1,
					"patching_rect" : [ 350.0, 80.0, 56.0, 20.0 ],
					"numoutlets" : 0
				}

			}
, 			{
				"box" : 				{
					"maxclass" : "comment",
					"text" : "channel",
					"id" : "obj-24",
					"fontname" : "Arial",
					"frgb" : [ 0.101961, 0.121569, 0.172549, 1.0 ],
					"fontface" : 1,
					"fontsize" : 10.0,
					"numinlets" : 1,
					"patching_rect" : [ 280.0, 80.0, 49.0, 18.0 ],
					"numoutlets" : 0
				}

			}
, 			{
				"box" : 				{
					"maxclass" : "comment",
					"text" : "device",
					"id" : "obj-18",
					"fontname" : "Arial",
					"frgb" : [ 0.101961, 0.121569, 0.172549, 1.0 ],
					"fontface" : 1,
					"fontsize" : 10.0,
					"numinlets" : 1,
					"patching_rect" : [ 55.0, 80.0, 43.0, 18.0 ],
					"numoutlets" : 0
				}

			}
, 			{
				"box" : 				{
					"maxclass" : "live.numbox",
					"varname" : "live.numbox",
					"id" : "obj-15",
					"parameter_enable" : 1,
					"outlettype" : [ "", "float" ],
					"numinlets" : 1,
					"patching_rect" : [ 245.0, 80.0, 36.0, 15.0 ],
					"numoutlets" : 2,
					"saved_attribute_attributes" : 					{
						"valueof" : 						{
							"parameter_unitstyle" : 0,
							"parameter_mmax" : 34.0,
							"parameter_mmin" : 1.0,
							"parameter_initial" : [ 1.0 ],
							"parameter_type" : 1,
							"parameter_initial_enable" : 1,
							"parameter_shortname" : "live.numbox",
							"parameter_invisible" : 1,
							"parameter_modmax" : 127.0,
							"parameter_annotation_name" : "",
							"parameter_longname" : "live.numbox",
							"parameter_modmin" : 0.0,
							"parameter_linknames" : 0,
							"parameter_modmode" : 0,
							"parameter_info" : "",
							"parameter_order" : 0,
							"parameter_units" : "",
							"parameter_speedlim" : 0,
							"parameter_steps" : 0,
							"parameter_exponent" : 1.0
						}

					}

				}

			}
, 			{
				"box" : 				{
					"maxclass" : "newobj",
					"text" : "p device-menu",
					"id" : "obj-10",
					"fontname" : "Verdana",
					"outlettype" : [ "clear" ],
					"fontsize" : 10.0,
					"numinlets" : 1,
					"patching_rect" : [ 680.0, 210.0, 85.0, 19.0 ],
					"numoutlets" : 1,
					"patcher" : 					{
						"fileversion" : 1,
						"rect" : [ 29.0, 69.0, 640.0, 480.0 ],
						"bglocked" : 0,
						"defrect" : [ 29.0, 69.0, 640.0, 480.0 ],
						"openrect" : [ 0.0, 0.0, 0.0, 0.0 ],
						"openinpresentation" : 0,
						"default_fontsize" : 10.0,
						"default_fontface" : 0,
						"default_fontname" : "Verdana",
						"gridonopen" : 0,
						"gridsize" : [ 5.0, 5.0 ],
						"gridsnaponopen" : 0,
						"toolbarvisible" : 1,
						"boxanimatetime" : 200,
						"imprint" : 0,
						"enablehscroll" : 1,
						"enablevscroll" : 1,
						"devicewidth" : 0.0,
						"boxes" : [ 							{
								"box" : 								{
									"maxclass" : "newobj",
									"text" : "prepend append",
									"id" : "obj-18",
									"fontname" : "Verdana",
									"outlettype" : [ "" ],
									"fontsize" : 10.0,
									"numinlets" : 1,
									"patching_rect" : [ 50.0, 160.0, 92.0, 19.0 ],
									"numoutlets" : 1
								}

							}
, 							{
								"box" : 								{
									"maxclass" : "newobj",
									"text" : "iter",
									"id" : "obj-17",
									"fontname" : "Verdana",
									"outlettype" : [ "" ],
									"fontsize" : 10.0,
									"numinlets" : 1,
									"patching_rect" : [ 50.0, 140.0, 27.0, 19.0 ],
									"numoutlets" : 1
								}

							}
, 							{
								"box" : 								{
									"maxclass" : "newobj",
									"text" : "t l clear",
									"id" : "obj-16",
									"fontname" : "Verdana",
									"outlettype" : [ "", "clear" ],
									"fontsize" : 10.0,
									"numinlets" : 1,
									"patching_rect" : [ 50.0, 120.0, 48.0, 19.0 ],
									"numoutlets" : 2
								}

							}
, 							{
								"box" : 								{
									"maxclass" : "newobj",
									"text" : "route devices",
									"id" : "obj-15",
									"fontname" : "Verdana",
									"outlettype" : [ "", "" ],
									"fontsize" : 10.0,
									"numinlets" : 1,
									"patching_rect" : [ 50.0, 100.0, 78.0, 19.0 ],
									"numoutlets" : 2
								}

							}
, 							{
								"box" : 								{
									"maxclass" : "inlet",
									"id" : "obj-6",
									"outlettype" : [ "" ],
									"numinlets" : 0,
									"patching_rect" : [ 50.0, 40.0, 25.0, 25.0 ],
									"numoutlets" : 1,
									"comment" : ""
								}

							}
, 							{
								"box" : 								{
									"maxclass" : "outlet",
									"id" : "obj-9",
									"numinlets" : 1,
									"patching_rect" : [ 45.0, 239.0, 25.0, 25.0 ],
									"numoutlets" : 0,
									"comment" : ""
								}

							}
 ],
						"lines" : [ 							{
								"patchline" : 								{
									"source" : [ "obj-16", 1 ],
									"destination" : [ "obj-9", 0 ],
									"hidden" : 0,
									"midpoints" : [  ]
								}

							}
, 							{
								"patchline" : 								{
									"source" : [ "obj-18", 0 ],
									"destination" : [ "obj-9", 0 ],
									"hidden" : 0,
									"midpoints" : [  ]
								}

							}
, 							{
								"patchline" : 								{
									"source" : [ "obj-6", 0 ],
									"destination" : [ "obj-15", 0 ],
									"hidden" : 0,
									"midpoints" : [  ]
								}

							}
, 							{
								"patchline" : 								{
									"source" : [ "obj-17", 0 ],
									"destination" : [ "obj-18", 0 ],
									"hidden" : 0,
									"midpoints" : [  ]
								}

							}
, 							{
								"patchline" : 								{
									"source" : [ "obj-16", 0 ],
									"destination" : [ "obj-17", 0 ],
									"hidden" : 0,
									"midpoints" : [  ]
								}

							}
, 							{
								"patchline" : 								{
									"source" : [ "obj-15", 0 ],
									"destination" : [ "obj-16", 0 ],
									"hidden" : 0,
									"midpoints" : [  ]
								}

							}
 ]
					}
,
					"saved_object_attributes" : 					{
						"fontname" : "Verdana",
						"default_fontsize" : 10.0,
						"globalpatchername" : "",
						"fontface" : 0,
						"fontsize" : 10.0,
						"default_fontface" : 0,
						"default_fontname" : "Verdana"
					}

				}

			}
, 			{
				"box" : 				{
					"maxclass" : "message",
					"text" : "channel $1",
					"id" : "obj-14",
					"fontname" : "Verdana",
					"outlettype" : [ "" ],
					"fontsize" : 10.0,
					"numinlets" : 2,
					"patching_rect" : [ 245.0, 110.0, 66.0, 17.0 ],
					"numoutlets" : 1
				}

			}
, 			{
				"box" : 				{
					"maxclass" : "fpic",
					"id" : "obj-32",
					"embed" : 1,
					"numinlets" : 1,
					"patching_rect" : [ 10.0, 480.0, 64.0, 64.0 ],
					"numoutlets" : 0,
					"data" : [ 945, "", "IBkSG0fBZn....PCIgDQRA....D....PHX....fpoEm2....DLmPIQEBHf.B7g.YHB..CfVRDEDU3wY6aFCShDDE.8Omn6ZglUargXn0NtJhcjXkZw4UXAUGUZ4cjPm.2c8F2yBarZuF2BZrwPozYnyNJgXnWBEhhZ9WCWxFyNK2vt+4OliWIemc94My3928Ch82eeD9Ok50qK9.2IA2LS.bm.byLAvcBvMojEXt4lCrrrzYtLQVc0UaFU7ACFj8kWdwI3m8zSOAu95qRGiTAXYYAqu95plijwlat4k6ryNeNp+lKt3hqa2tc9fe1c2cG7vCOHcLuaNBr81aeJEW22EBHc5z2JDhlTbseWHfCN3.RV8AHh+GvhKtX2JUp7apl3f3448od85kMrX1118EBgGUycjBvxx5GTMwA4jSN4KxhUtb4SO5niHatY+H.hXw6u+9LxhuvBK7KJme1Ev4me9WkEa2c20SHD8ob9YU.Hh4kc1G..xkK2OoNGXU.MZzP5p+FarQSgPzk5bfMAfHl4latYOYwKTn.Y25KHrIfNc5Hc0ekUVoqPHtTG4AKB.Qzw22unr3kJUh7y9+Et1AT7wGezIr.1118A.zxpO.LI.WWWoa+KWt7oTequfncA7OT3im9xFFDfuuuzxdGW3SWMlN5U.HhYe6KrHH4xkSKO7UPzp.Z0p0jJ7ooFSG..MJ.DwLWc0UEkEuPgBZe0G.MJfQiFUTVrwE93oqbIHZQ.HhNGe7wR29WpTIsT1aXH8EhjvrmrBe..fZ0p4VsZU23NIsa2V4wnkc.ttteWGyyz.4B.QLeTE9vMjK.eeeic0G.hE.hXlnJ7wDfTAzpUKid0G.BuK.hnSsZ0JJKd5zoucokVJQepuNc5jMp61DFjIfQiF8MYwrss6e3gG9wjdNCq4nSBxNBb1YmEYyNnZdUERD.2M6PEHQ.b2rCUHwEfIzrCUHwEfIzrCUHQEfozrCUHQEfozrCUHwDfI0rCUHI2AXLM6PERLAXRM6PERDAXZM6PERDAXZM6PEhs.LwlcnBwV.lXyNTgXI.SsYGpPrDfo1rCUXpEfI2rCUHN6.j1riwE93Eiqs1XpEPTM6Xqs15RSsvm2xTI.Dw8hpvGS6Y9iBgre3jyO+78Was0tMrXCGNLyvgCyDVrToR0e4kWNzwQMp9Slod85BouU3me9Ymd85keJxCmACFLMiiEX+KKM2LS.bm.byLAvcBvM+A3bEiEPfblu5.....jTQNQjqBAlf" ]
				}

			}
, 			{
				"box" : 				{
					"maxclass" : "comment",
					"text" : "http://74Objects.com/",
					"id" : "obj-31",
					"fontname" : "Verdana",
					"frgb" : [ 0.101961, 0.121569, 0.172549, 1.0 ],
					"fontsize" : 10.0,
					"numinlets" : 1,
					"patching_rect" : [ 80.0, 520.0, 168.0, 19.0 ],
					"numoutlets" : 0
				}

			}
, 			{
				"box" : 				{
					"maxclass" : "comment",
					"text" : "Object by Timothy Place",
					"id" : "obj-30",
					"fontname" : "Verdana",
					"frgb" : [ 0.101961, 0.121569, 0.172549, 1.0 ],
					"fontsize" : 10.0,
					"numinlets" : 1,
					"patching_rect" : [ 80.0, 505.0, 168.0, 19.0 ],
					"numoutlets" : 0
				}

			}
, 			{
				"box" : 				{
					"maxclass" : "comment",
					"text" : "teabox.mfl~",
					"id" : "obj-29",
					"fontname" : "Verdana",
					"frgb" : [ 0.101961, 0.121569, 0.172549, 1.0 ],
					"fontsize" : 14.0,
					"numinlets" : 1,
					"patching_rect" : [ 80.0, 485.0, 190.0, 24.0 ],
					"numoutlets" : 0
				}

			}
, 			{
				"box" : 				{
					"maxclass" : "message",
					"text" : "device $1",
					"id" : "obj-23",
					"fontname" : "Verdana",
					"outlettype" : [ "" ],
					"fontsize" : 10.0,
					"numinlets" : 2,
					"patching_rect" : [ 95.0, 110.0, 59.0, 17.0 ],
					"numoutlets" : 1
				}

			}
, 			{
				"box" : 				{
					"maxclass" : "umenu",
					"varname" : "umenu",
					"id" : "obj-19",
					"fontname" : "Arial",
					"outlettype" : [ "int", "", "" ],
					"bgcolor" : [ 0.909804, 0.909804, 0.909804, 1.0 ],
					"fontface" : 1,
					"arrowbgcolor" : [ 0.909804, 0.909804, 0.909804, 1.0 ],
					"fontsize" : 10.0,
					"framecolor" : [ 0.2, 0.219608, 0.270588, 1.0 ],
					"arrowcolor" : [ 0.101961, 0.121569, 0.172549, 1.0 ],
					"types" : [  ],
					"items" : [ "Duet (3280)", ",", "Built-in Microphone", ",", "Built-in Input", ",", "Built-in Output" ],
					"numinlets" : 1,
					"rounded" : 0,
					"patching_rect" : [ 95.0, 80.0, 146.0, 18.0 ],
					"numoutlets" : 3
				}

			}
, 			{
				"box" : 				{
					"maxclass" : "newobj",
					"text" : "teabox.mfl~",
					"id" : "obj-1",
					"fontname" : "Verdana",
					"outlettype" : [ "signal", "signal", "signal", "signal", "signal", "signal", "signal", "signal", "signal", "" ],
					"fontsize" : 10.0,
					"numinlets" : 1,
					"patching_rect" : [ 95.0, 185.0, 604.0, 19.0 ],
					"numoutlets" : 10
				}

			}
, 			{
				"box" : 				{
					"maxclass" : "ezdac~",
					"id" : "obj-4",
					"numinlets" : 2,
					"patching_rect" : [ 280.0, 490.0, 44.0, 44.0 ],
					"numoutlets" : 0
				}

			}
, 			{
				"box" : 				{
					"maxclass" : "message",
					"text" : "getdevices",
					"id" : "obj-13",
					"fontname" : "Verdana",
					"outlettype" : [ "" ],
					"fontsize" : 10.0,
					"numinlets" : 2,
					"patching_rect" : [ 155.0, 110.0, 62.0, 17.0 ],
					"numoutlets" : 1
				}

			}
, 			{
				"box" : 				{
					"maxclass" : "panel",
					"id" : "obj-27",
					"bgcolor" : [ 0.568627, 0.6, 0.619608, 1.0 ],
					"numinlets" : 1,
					"patching_rect" : [ 35.0, 70.0, 380.0, 35.0 ],
					"numoutlets" : 0
				}

			}
 ],
		"lines" : [ 			{
				"patchline" : 				{
					"source" : [ "obj-16", 0 ],
					"destination" : [ "obj-53", 0 ],
					"hidden" : 0,
					"midpoints" : [  ]
				}

			}
, 			{
				"patchline" : 				{
					"source" : [ "obj-9", 0 ],
					"destination" : [ "obj-52", 0 ],
					"hidden" : 0,
					"midpoints" : [  ]
				}

			}
, 			{
				"patchline" : 				{
					"source" : [ "obj-8", 0 ],
					"destination" : [ "obj-51", 0 ],
					"hidden" : 0,
					"midpoints" : [  ]
				}

			}
, 			{
				"patchline" : 				{
					"source" : [ "obj-7", 0 ],
					"destination" : [ "obj-50", 0 ],
					"hidden" : 0,
					"midpoints" : [  ]
				}

			}
, 			{
				"patchline" : 				{
					"source" : [ "obj-6", 0 ],
					"destination" : [ "obj-49", 0 ],
					"hidden" : 0,
					"midpoints" : [  ]
				}

			}
, 			{
				"patchline" : 				{
					"source" : [ "obj-5", 0 ],
					"destination" : [ "obj-48", 0 ],
					"hidden" : 0,
					"midpoints" : [  ]
				}

			}
, 			{
				"patchline" : 				{
					"source" : [ "obj-3", 0 ],
					"destination" : [ "obj-47", 0 ],
					"hidden" : 0,
					"midpoints" : [  ]
				}

			}
, 			{
				"patchline" : 				{
					"source" : [ "obj-2", 0 ],
					"destination" : [ "obj-43", 0 ],
					"hidden" : 0,
					"midpoints" : [  ]
				}

			}
, 			{
				"patchline" : 				{
					"source" : [ "obj-26", 0 ],
					"destination" : [ "obj-25", 0 ],
					"hidden" : 0,
					"midpoints" : [  ]
				}

			}
, 			{
				"patchline" : 				{
					"source" : [ "obj-20", 0 ],
					"destination" : [ "obj-16", 0 ],
					"hidden" : 0,
					"midpoints" : [ 39.5, 223.5, 559.5, 223.5 ]
				}

			}
, 			{
				"patchline" : 				{
					"source" : [ "obj-20", 0 ],
					"destination" : [ "obj-9", 0 ],
					"hidden" : 0,
					"midpoints" : [ 39.5, 225.5, 494.5, 225.5 ]
				}

			}
, 			{
				"patchline" : 				{
					"source" : [ "obj-20", 0 ],
					"destination" : [ "obj-8", 0 ],
					"hidden" : 0,
					"midpoints" : [ 39.5, 227.5, 429.5, 227.5 ]
				}

			}
, 			{
				"patchline" : 				{
					"source" : [ "obj-20", 0 ],
					"destination" : [ "obj-7", 0 ],
					"hidden" : 0,
					"midpoints" : [ 39.5, 229.5, 364.5, 229.5 ]
				}

			}
, 			{
				"patchline" : 				{
					"source" : [ "obj-20", 0 ],
					"destination" : [ "obj-6", 0 ],
					"hidden" : 0,
					"midpoints" : [ 39.5, 231.5, 299.5, 231.5 ]
				}

			}
, 			{
				"patchline" : 				{
					"source" : [ "obj-20", 0 ],
					"destination" : [ "obj-5", 0 ],
					"hidden" : 0,
					"midpoints" : [ 39.5, 233.5, 234.5, 233.5 ]
				}

			}
, 			{
				"patchline" : 				{
					"source" : [ "obj-20", 0 ],
					"destination" : [ "obj-3", 0 ],
					"hidden" : 0,
					"midpoints" : [ 39.5, 235.5, 169.5, 235.5 ]
				}

			}
, 			{
				"patchline" : 				{
					"source" : [ "obj-20", 0 ],
					"destination" : [ "obj-2", 0 ],
					"hidden" : 0,
					"midpoints" : [ 39.5, 237.5, 104.5, 237.5 ]
				}

			}
, 			{
				"patchline" : 				{
					"source" : [ "obj-25", 0 ],
					"destination" : [ "obj-20", 0 ],
					"hidden" : 0,
					"midpoints" : [  ]
				}

			}
, 			{
				"patchline" : 				{
					"source" : [ "obj-1", 2 ],
					"destination" : [ "obj-5", 0 ],
					"hidden" : 0,
					"midpoints" : [  ]
				}

			}
, 			{
				"patchline" : 				{
					"source" : [ "obj-1", 3 ],
					"destination" : [ "obj-6", 0 ],
					"hidden" : 0,
					"midpoints" : [  ]
				}

			}
, 			{
				"patchline" : 				{
					"source" : [ "obj-1", 4 ],
					"destination" : [ "obj-7", 0 ],
					"hidden" : 0,
					"midpoints" : [  ]
				}

			}
, 			{
				"patchline" : 				{
					"source" : [ "obj-1", 5 ],
					"destination" : [ "obj-8", 0 ],
					"hidden" : 0,
					"midpoints" : [  ]
				}

			}
, 			{
				"patchline" : 				{
					"source" : [ "obj-1", 6 ],
					"destination" : [ "obj-9", 0 ],
					"hidden" : 0,
					"midpoints" : [  ]
				}

			}
, 			{
				"patchline" : 				{
					"source" : [ "obj-1", 7 ],
					"destination" : [ "obj-16", 0 ],
					"hidden" : 0,
					"midpoints" : [  ]
				}

			}
, 			{
				"patchline" : 				{
					"source" : [ "obj-1", 1 ],
					"destination" : [ "obj-3", 0 ],
					"hidden" : 0,
					"midpoints" : [  ]
				}

			}
, 			{
				"patchline" : 				{
					"source" : [ "obj-1", 0 ],
					"destination" : [ "obj-2", 0 ],
					"hidden" : 0,
					"midpoints" : [  ]
				}

			}
, 			{
				"patchline" : 				{
					"source" : [ "obj-14", 0 ],
					"destination" : [ "obj-1", 0 ],
					"hidden" : 0,
					"midpoints" : [ 254.5, 139.5, 104.5, 139.5 ]
				}

			}
, 			{
				"patchline" : 				{
					"source" : [ "obj-13", 0 ],
					"destination" : [ "obj-1", 0 ],
					"hidden" : 0,
					"midpoints" : [ 164.5, 135.5, 104.5, 135.5 ]
				}

			}
, 			{
				"patchline" : 				{
					"source" : [ "obj-19", 0 ],
					"destination" : [ "obj-23", 0 ],
					"hidden" : 0,
					"midpoints" : [  ]
				}

			}
, 			{
				"patchline" : 				{
					"source" : [ "obj-23", 0 ],
					"destination" : [ "obj-1", 0 ],
					"hidden" : 0,
					"midpoints" : [  ]
				}

			}
, 			{
				"patchline" : 				{
					"source" : [ "obj-10", 0 ],
					"destination" : [ "obj-19", 0 ],
					"hidden" : 0,
					"midpoints" : [ 689.5, 236.0, 787.5, 236.0, 787.5, 58.0, 104.5, 58.0 ]
				}

			}
, 			{
				"patchline" : 				{
					"source" : [ "obj-1", 9 ],
					"destination" : [ "obj-10", 0 ],
					"hidden" : 0,
					"midpoints" : [  ]
				}

			}
, 			{
				"patchline" : 				{
					"source" : [ "obj-15", 0 ],
					"destination" : [ "obj-14", 0 ],
					"hidden" : 0,
					"midpoints" : [  ]
				}

			}
, 			{
				"patchline" : 				{
					"source" : [ "obj-36", 1 ],
					"destination" : [ "obj-19", 0 ],
					"hidden" : 0,
					"midpoints" : [  ]
				}

			}
 ],
		"parameters" : 		{
			"obj-43" : [ "live.slider", "live.slider", 0 ],
			"obj-47" : [ "live.slider[1]", "live.slider", 0 ],
			"obj-51" : [ "live.slider[5]", "live.slider", 0 ],
			"obj-50" : [ "live.slider[4]", "live.slider", 0 ],
			"obj-15" : [ "live.numbox", "live.numbox", 0 ],
			"obj-49" : [ "live.slider[3]", "live.slider", 0 ],
			"obj-53" : [ "live.slider[7]", "live.slider", 0 ],
			"obj-48" : [ "live.slider[2]", "live.slider", 0 ],
			"obj-52" : [ "live.slider[6]", "live.slider", 0 ]
		}

	}

}
